<?xml version="1.0" encoding="utf-8"?>
<svg viewBox="0 0 500 500" xmlns="http://www.w3.org/2000/svg">
  <path d="M 62.639 398.137 C 60.656 400.462 60.609 404.261 62.535 406.653 L 94.555 446.246 C 96.516 448.669 99.758 448.707 101.757 446.328 L 199.467 330.104 C 201.745 327.393 201.353 322.863 198.658 320.766 L 160.237 290.869 C 158.256 289.312 155.635 289.622 153.947 291.608 Z" fill="#3f3d56" style=""/>
  <path d="M 200.136 322.532 C 199.942 322.886 199.719 323.217 199.467 323.518 L 101.986 441.937 C 99.987 444.315 96.746 444.278 94.785 441.854 L 62.075 400.614 C 61.853 400.338 61.653 400.036 61.477 399.713 C 60.224 402.019 60.873 404.598 62.535 406.653 L 94.555 446.246 C 96.516 448.669 99.758 448.707 101.757 446.328 L 199.467 330.104 C 201.161 328.086 201.441 324.928 200.136 322.532 Z" fill="#6c63ff" style=""/>
  <path d="M 191.089 323.964 L 187.113 320.936 C 188.54 323.974 186.68 327.719 183.764 327.675 C 183.011 327.665 182.279 327.387 181.661 326.877 L 155.93 305.745 C 153.526 303.774 153.811 299.435 156.441 297.934 C 156.599 297.843 156.764 297.767 156.93 297.702 L 154.883 296.142 C 154.335 295.724 153.617 295.822 153.161 296.373 L 66.601 397.997 C 66.058 398.654 66.074 399.718 66.637 400.352 L 98.072 436.946 C 98.615 437.556 99.464 437.542 99.992 436.914 L 191.322 326.519 C 191.946 325.775 191.834 324.53 191.089 323.964 Z" fill="#fff" style=""/>
  <polygon points="91.186 375.557 117.74 405.467 180.9 330.918 148.846 305.994 91.186 375.557" fill="#e6e6e6" style=""/>
  <path d="M 178.446 349.317 C 178.809 349.731 179.382 349.731 179.745 349.317 L 185.268 342.718 C 185.626 342.289 185.626 341.595 185.268 341.166 C 184.905 340.751 184.333 340.751 183.969 341.166 L 178.446 347.763 C 178.087 348.193 178.087 348.887 178.446 349.317 Z" fill="#3f3d56" style=""/>
  <path d="M 169.141 360.432 C 169.5 360.861 170.081 360.861 170.441 360.432 L 175.964 353.834 C 176.464 353.236 176.234 352.215 175.55 351.998 C 175.233 351.898 174.895 352.005 174.664 352.281 L 169.141 358.879 C 168.783 359.309 168.783 360.004 169.141 360.432 Z" fill="#3f3d56" style=""/>
  <circle cx="381.81629" cy="411.68263" r="27" fill="#6c63ff" transform="matrix(0.229737, 0, 0, 0.274458, 4.082148, 288.240967)" style=""/>
  <polygon points="151.848 448.548 19.96 448.548 19.96 447.95 151.938 447.95 151.848 448.548" fill="#3f3d56" style=""/>
  <rect x="71.489" y="337.197" width="65.569" height="15.466" fill="#e6e6e6" style=""/>
  <rect x="71.489" y="312.76" width="65.569" height="15.466" fill="#e6e6e6" style=""/>
  <rect x="71.489" width="65.569" height="15.466" fill="#e6e6e6" style="" y="288.241"/>
  <path d="M 72.887 302.037 L 135.661 302.037 L 135.661 289.911 L 72.887 289.911 Z" fill="#fff" style=""/>
  <path d="M 72.887 326.609 L 135.661 326.609 L 135.661 314.482 L 72.887 314.482 Z" fill="#fff" style=""/>
  <path d="M 72.887 350.993 L 135.661 350.993 L 135.661 338.866 L 72.887 338.866 Z" fill="#fff" style=""/>
  <circle cx="323.41136" cy="27.80913" r="16.83183" fill="#6c63ff" transform="matrix(0.229737, 0, 0, 0.274458, 4.082148, 288.240967)" style=""/>
  <rect x="87.629" y="294.066" width="38.165" height="1.004" fill="#6c63ff" style=""/>
  <rect x="87.629" y="296.677" width="38.165" height="1.004" fill="#6c63ff" style=""/>
  <circle cx="323.41136" cy="117.87345" r="16.83183" fill="#ccc" transform="matrix(0.229737, 0, 0, 0.274458, 4.082148, 288.240967)" style=""/>
  <rect x="87.629" y="318.785" width="38.165" height="1.004" fill="#ccc" style=""/>
  <rect x="87.629" y="321.395" width="38.165" height="1.004" fill="#ccc" style=""/>
  <circle cx="323.41136" cy="206.91288" r="16.83184" fill="#ccc" transform="matrix(0.229737, 0, 0, 0.274458, 4.082148, 288.240967)" style=""/>
  <rect x="87.629" y="343.222" width="38.165" height="1.004" fill="#ccc" style=""/>
  <rect x="87.629" y="345.833" width="38.165" height="1.004" fill="#ccc" style=""/>
  <path d="M 7.023 450.369 L 8.716 450.607 C 10.051 451.569 11.621 451.931 13.357 451.858 C 13.85 451.839 14.299 451.512 14.536 450.995 L 14.536 450.995 C 14.969 450.038 14.522 448.852 13.635 448.604 L 12.351 448.248 L 9.249 444.623 L 7.378 440.578 L 4.659 440.95 L 4.094 446.089 L 4.094 446.089 C 3.945 448.226 5.241 450.12 7.023 450.369 Z" fill="#2f2e41" style=""/>
  <path d="M 33.368 447.77 L 35.027 448.236 C 36.262 449.374 37.785 449.947 39.518 450.111 C 40.01 450.16 40.487 449.895 40.771 449.413 L 40.771 449.413 C 41.293 448.522 40.964 447.282 40.106 446.916 L 38.863 446.387 L 36.127 442.363 L 34.654 438.091 L 31.919 438.091 L 30.867 443.118 L 30.867 443.118 C 30.515 445.222 31.621 447.28 33.368 447.77 Z" fill="#2f2e41" style=""/>
  <path d="M 34.728 438.374 L 31.634 438.944 L 26.756 409.519 L 18.308 392.32 L 8.075 442.355 L 4.267 443.208 C 4.695 415.031 2.611 379.558 7.361 375.262 L 28.064 378.105 L 37.107 407.103 Z" fill="#2f2e41" style=""/>
  <circle cx="68.13521" cy="126.47269" r="31.0749" fill="#ffb8b8" transform="matrix(0.229737, 0, 0, 0.274458, 4.082148, 288.240967)" style=""/>
  <polygon points="9.741 336.029 18.307 337.735 20.45 328.638 14.262 326.364 9.741 336.029" fill="#ffb8b8" style=""/>
  <path d="M 6.172 376.398 L 29.016 378.958 C 27.185 371.35 25.506 363.768 26.874 356.215 C 28.611 349.47 26.935 345.46 22.354 342.284 L 19.26 334.04 L 10.931 332.903 L 10.931 332.903 C 8.725 337.139 7.823 342.16 8.379 347.105 C 9.566 357.858 9.245 367.836 6.172 376.398 Z" fill="#6c63ff" style=""/>
  <path d="M 16.929 313.273 C 19.367 313.072 22.186 313.017 22.538 313.784 C 25.063 313.642 27.262 314.695 28.276 317.143 C 28.644 318.046 28.242 319.128 27.432 319.403 C 26.152 319.844 24.2 320.39 22.775 320.215 C 19.817 324.371 21.061 331.949 23.933 336.377 L 21.339 337.011 L 16.414 328.82 L 17.969 337.837 L 11.977 339.008 L 9.886 327.548 C 9.446 324.829 9.557 322.023 10.206 319.363 C 10.277 319.095 10.361 318.832 10.459 318.577 C 11.635 315.521 14.119 313.484 16.929 313.273 Z" fill="#2f2e41" style=""/>
  <path d="M 20.926 384.928 L 20.768 391.529 C 20.722 393.415 21.906 395.024 23.479 395.212 L 23.479 395.212 C 25.577 395.462 27.237 393.125 26.686 390.693 L 25.446 385.213 L 21.878 361.9 L 22.115 348.254 L 14.5 347.971 L 15.928 363.322 Z" fill="#ffb8b8" style=""/>
  <path d="M 14.025 349.392 C 16.784 348.136 19.832 348.136 22.591 349.392 L 22.115 338.02 C 22.115 335.508 20.41 333.472 18.308 333.472 L 18.308 333.472 C 16.205 333.472 14.5 335.508 14.5 338.02 Z" fill="#6c63ff" style=""/>
  <path d="M 488.154 210.585 C 485.063 217.836 322.737 217.228 322.984 210.585 C 326.076 203.335 488.401 203.943 488.154 210.585 Z" fill="#d0cde1" style=""/>
  <rect x="421.413" y="54.866" width="27.248" height="29.701" fill="#2f2e41" style=""/>
  <rect x="329.137" y="63.229" width="78.079" height="81.608" fill="#3f3d56" style=""/>
  <rect x="352.608" y="76.782" width="31.139" height="4.902" fill="#fff" style=""/>
  <rect x="339.785" y="88.317" width="21.638" height="2.883" fill="#fff" style=""/>
  <rect x="357.187" y="107.349" width="21.638" height="2.883" fill="#fff" style=""/>
  <rect x="374.588" y="88.317" width="21.638" height="2.883" fill="#a263ff" style=""/>
  <rect x="425.078" y="71.591" width="19.692" height="1.335" fill="#a263ff" style=""/>
  <rect x="424.848" y="74.529" width="19.692" height="1.335" fill="#a263ff" style=""/>
  <rect x="425.078" y="77.466" width="19.692" height="1.335" fill="#a263ff" style=""/>
  <rect x="425.078" y="61.787" width="19.692" height="1.335" fill="#a263ff" style=""/>
  <rect x="424.848" y="64.724" width="19.692" height="1.335" fill="#a263ff" style=""/>
  <rect x="425.078" y="67.661" width="19.692" height="1.335" fill="#a263ff" style=""/>
  <rect x="429.199" y="64.671" width="27.248" height="29.701" fill="#3f3d56" style=""/>
  <rect x="432.861" y="81.396" width="19.692" height="1.335" fill="#a263ff" style=""/>
  <rect x="432.632" y="84.333" width="19.692" height="1.335" fill="#a263ff" style=""/>
  <rect x="432.861" y="87.27" width="19.692" height="1.335" fill="#a263ff" style=""/>
  <rect x="432.861" y="71.591" width="19.692" height="1.335" fill="#a263ff" style=""/>
  <rect x="432.632" y="74.529" width="19.692" height="1.335" fill="#a263ff" style=""/>
  <rect x="432.861" y="77.466" width="19.692" height="1.335" fill="#a263ff" style=""/>
  <rect y="76.205" width="27.248" height="29.701" fill="#3f3d56" style="" x="267.544"/>
  <rect x="271.208" y="92.931" width="19.692" height="1.335" fill="#a263ff" style=""/>
  <rect x="270.978" y="95.868" width="19.692" height="1.335" fill="#a263ff" style=""/>
  <rect x="271.208" y="98.805" width="19.692" height="1.335" fill="#a263ff" style=""/>
  <rect x="271.208" y="83.126" width="19.692" height="1.335" fill="#a263ff" style=""/>
  <rect x="270.978" y="86.063" width="19.692" height="1.335" fill="#a263ff" style=""/>
  <rect x="271.208" y="89" width="19.692" height="1.335" fill="#a263ff" style=""/>
  <rect x="339.785" y="97.833" width="56.785" height="2.883" fill="#fff" style=""/>
  <rect x="339.785" y="107.349" width="12.709" height="2.883" fill="#a263ff" style=""/>
  <rect x="339.785" y="126.381" width="12.709" height="2.883" fill="#fff" style=""/>
  <rect x="383.519" y="107.349" width="12.709" height="2.883" fill="#fff" style=""/>
  <rect x="339.785" y="116.865" width="56.785" height="2.883" fill="#fff" style=""/>
  <rect x="363.254" y="126.381" width="33.316" height="2.883" fill="#fff" style=""/>
  <polygon points="391.142 89.934 390.778 89.584 415.576 48.811 440.189 48.811 440.189 49.387 415.802 49.387 391.142 89.934" fill="#2f2e41" style=""/>
  <polygon points="341.125 109.01 304.782 69.861 280.366 69.861 280.366 69.285 304.951 69.285 341.423 108.572 341.125 109.01" fill="#2f2e41" style=""/>
  <circle cx="775.93455" cy="16.46545" r="16.46545" fill="#a263ff" transform="matrix(0.222501, 0, 0, 0.280214, 267.54303, 44.197021)" style=""/>
  <circle cx="57.62909" cy="90.56" r="16.46545" fill="#a263ff" transform="matrix(0.222501, 0, 0, 0.280214, 267.54303, 44.197021)" style=""/>
  <path d="M 472.201 205.706 C 472.201 205.706 477.543 183.07 457.226 170.18 Z" fill="#d0cde1" style=""/>
  <path d="M 472.866 205.827 C 472.866 205.827 474.983 183.485 498.644 182.084 Z" fill="#d0cde1" style=""/>
  <polygon points="382.092 202.251 376.569 201.788 378.411 212.219 384.668 208.974 382.092 202.251" fill="#ffb9b9" style=""/>
  <polygon points="432.713 182.779 419.827 167.015 412.464 174.201 397.922 196.224 399.58 199.469 417.25 184.401 429.215 204.106 440.628 196.919 432.713 182.779" fill="#2f2e41" style=""/>
  <polygon points="432.713 182.779 419.827 167.015 412.464 174.201 397.922 196.224 399.58 199.469 417.25 184.401 429.215 204.106 440.628 196.919 432.713 182.779" opacity="0.1" style=""/>
  <path d="M 433.816 193.21 L 432.161 194.833 L 418.723 189.038 L 415.594 187.415 L 409.335 189.038 C 409.335 189.038 409.335 182.546 415.224 182.779 L 421.3 184.633 L 428.479 185.328 Z" fill="#ffb9b9" style=""/>
  <polygon points="445.782 210.365 441.732 213.611 436.946 213.611 414.673 203.179 382.092 210.597 381.172 201.788 410.991 185.328 437.13 196.224 445.782 210.365" fill="#2f2e41" style=""/>
  <path d="M 419.643 169.101 L 416.882 169.796 L 416.279 168.912 C 415.306 167.482 415.109 165.454 415.778 163.769 L 415.778 163.769 L 423.509 151.019 C 423.509 151.019 425.718 144.759 429.215 147.309 C 432.713 149.859 426.27 154.032 426.27 154.032 L 422.404 161.682 L 422.772 165.624 Z" fill="#ffb9b9" style=""/>
  <circle cx="762.18768" cy="359.70546" r="32.26495" fill="#ffb9b9" transform="matrix(0.222501, 0, 0, 0.280214, 267.54303, 44.197021)" style=""/>
  <path d="M 433.91 151.598 L 437.223 161.566 L 445.138 157.393 C 445.138 157.393 442.56 149.513 442.56 149.28 C 442.56 149.048 433.91 151.598 433.91 151.598 Z" fill="#ffb9b9" style=""/>
  <path d="M 455.706 181.088 C 455.706 186.545 455.023 191.967 453.683 197.156 L 453.145 199.238 L 450.567 214.074 L 447.807 215.002 L 445.782 211.756 L 441.732 208.047 L 438.786 202.019 L 436.262 196.72 L 435.474 195.066 L 432.713 177.678 L 422.22 170.26 L 418.723 169.564 L 419.458 167.014 L 422.589 161.682 L 425.718 161.219 L 426.638 160.293 L 427.375 160.755 L 430.319 158.669 L 431.239 159.132 L 436.622 159.763 L 439.891 158.901 L 444.594 155.722 L 446.518 156.119 L 453.145 163.074 C 454.839 168.841 455.706 174.94 455.706 181.088 Z" fill="#575a89" style=""/>
  <path d="M 378.265 205.841 C 378.265 205.841 379.914 202.322 379.217 201.911 C 378.521 201.5 375.563 199.863 375.563 199.863 L 371.226 198.053 C 371.226 198.053 364.969 186.339 364.831 196.525 C 364.693 206.711 369.387 209.16 369.387 209.16 C 369.387 209.16 373.574 220.506 375.946 218.696 C 378.317 216.887 380.69 210.746 380.69 210.746 C 380.69 210.746 376.413 207.85 378.265 205.841 Z" fill="#2f2e41" style=""/>
  <polygon points="453.698 179.069 446.703 184.865 436.262 196.72 435.474 195.066 433.265 181.155 433.816 181.155 439.523 167.942 453.698 179.069" opacity="0.1" style=""/>
  <polygon points="439.523 166.551 433.816 179.765 431.792 179.765 430.504 184.401 427.559 185.328 435.474 196.224 446.703 183.473 453.698 177.678 439.523 166.551" fill="#575a89" style=""/>
  <path d="M 431.546 138.269 L 430.769 138.646 C 430.265 138.216 430.139 137.349 430.491 136.723 L 429.054 136.639 C 432.967 130.074 440.56 129.304 445.258 134.994 C 445.324 134.71 446.036 135.262 446.328 135.822 C 446.425 135.361 447.095 137.593 447.331 139.172 C 447.44 138.646 447.861 139.494 447.492 140.308 C 447.726 140.265 447.832 141.019 447.652 141.438 C 447.907 141.287 447.864 142.186 447.586 142.787 C 447.951 142.746 444.708 149.085 443.395 152.79 C 443.013 150.583 442.586 148.26 441.356 146.617 C 441.147 146.338 440.918 146.083 440.69 145.829 L 439.454 144.455 C 438.017 142.859 436.71 140.886 434.796 140.289 C 433.48 139.879 432.649 139.787 433.366 137.92 C 432.718 138.26 432.113 138.766 431.46 139.083 C 431.468 138.822 431.559 138.53 431.546 138.269 Z" fill="#2f2e41" style=""/>
  <circle cx="778.32015" cy="363.42834" r="5.79115" fill="#ffb9b9" transform="matrix(0.222501, 0, 0, 0.280214, 267.54303, 44.197021)" style=""/>
</svg>